<svg width="42" height="42" viewBox="0 0 42 42" fill="none" xmlns="http://www.w3.org/2000/svg">
<path opacity="0.2" d="M11.4345 35.8148C11.3124 35.9389 11.1668 36.0373 11.0063 36.1046C10.8457 36.1718 10.6734 36.2064 10.4994 36.2064C10.3253 36.2064 10.153 36.1718 9.99246 36.1046C9.83191 36.0373 9.68634 35.9389 9.56421 35.8148L6.18452 32.4352C6.06051 32.313 5.96203 32.1675 5.89481 32.0069C5.82759 31.8464 5.79297 31.6741 5.79297 31.5C5.79297 31.3259 5.82759 31.1536 5.89481 30.9931C5.96203 30.8325 6.06051 30.687 6.18452 30.5648L23.6244 13.125L28.8744 18.375L11.4345 35.8148Z" fill="#FF6250"/>
<path d="M35.4375 21V28.875" stroke="#FF6250" stroke-width="2.375" stroke-linecap="round" stroke-linejoin="round"/>
<path d="M31.5 24.9375H39.375" stroke="#FF6250" stroke-width="2.375" stroke-linecap="round" stroke-linejoin="round"/>
<path d="M13.7812 6.5625V13.125" stroke="#FF6250" stroke-width="2.375" stroke-linecap="round" stroke-linejoin="round"/>
<path d="M10.5 9.84375H17.0625" stroke="#FF6250" stroke-width="2.375" stroke-linecap="round" stroke-linejoin="round"/>
<path d="M27.5625 30.1875V35.4375" stroke="#FF6250" stroke-width="2.375" stroke-linecap="round" stroke-linejoin="round"/>
<path d="M24.9375 32.8125H30.1875" stroke="#FF6250" stroke-width="2.375" stroke-linecap="round" stroke-linejoin="round"/>
<path d="M30.5847 6.17398L6.18784 30.5708C5.67528 31.0834 5.67528 31.9144 6.18784 32.427L9.58113 35.8203C10.0937 36.3328 10.9247 36.3328 11.4373 35.8203L35.8341 11.4234C36.3467 10.9109 36.3467 10.0798 35.8341 9.56727L32.4408 6.17398C31.9283 5.66142 31.0972 5.66142 30.5847 6.17398Z" stroke="#FF6250" stroke-width="2.375" stroke-linecap="round" stroke-linejoin="round"/>
<path d="M23.625 13.125L28.875 18.375" stroke="#FF6250" stroke-width="2.375" stroke-linecap="round" stroke-linejoin="round"/>
</svg>
