<svg width="42" height="42" viewBox="0 0 42 42" fill="none" xmlns="http://www.w3.org/2000/svg">
<path opacity="0.2" d="M16.8003 32.5499L9.45028 25.2L6.21825 34.1085C6.12889 34.3423 6.10912 34.5969 6.16133 34.8417C6.21353 35.0864 6.33547 35.3108 6.51243 35.4878C6.68939 35.6648 6.91379 35.7867 7.15854 35.8389C7.40329 35.8911 7.65792 35.8713 7.89168 35.782L16.8003 32.5499Z" fill="#F8D57E"/>
<path opacity="0.2" d="M32.6203 24.8341L32.6204 24.8343C32.7701 24.9826 32.8798 25.1664 32.9393 25.3684C32.9989 25.5705 33.0065 25.7844 32.9613 25.9902C32.916 26.1959 32.8196 26.387 32.6808 26.5455C32.542 26.704 32.3653 26.8248 32.1673 26.8968L25.4782 29.3277L12.6719 16.5215L15.1029 9.83233C15.1748 9.63431 15.2957 9.4577 15.4542 9.31889C15.6127 9.18009 15.8037 9.0836 16.0095 9.03839C16.2153 8.99319 16.4291 9.00072 16.6312 9.06031C16.8333 9.11989 17.017 9.22959 17.1654 9.3792L17.1656 9.37939L32.6203 24.8341Z" fill="#F8D57E" stroke="#F8D57E" stroke-width="0.125"/>
<path d="M6.21825 34.1086L15.0448 9.81098C15.1204 9.60306 15.2473 9.41762 15.4137 9.27188C15.5801 9.12613 15.7807 9.02482 15.9967 8.97735C16.2128 8.92988 16.4374 8.93779 16.6496 9.00036C16.8617 9.06292 17.0547 9.1781 17.2104 9.3352L32.6651 24.7899C32.8222 24.9456 32.9374 25.1386 33 25.3508C33.0625 25.563 33.0704 25.7875 33.023 26.0036C32.9755 26.2196 32.8742 26.4202 32.7284 26.5866C32.5827 26.7531 32.3973 26.8799 32.1893 26.9555L7.89168 35.7821C7.65792 35.8714 7.40329 35.8912 7.15854 35.839C6.91379 35.7868 6.68939 35.6648 6.51243 35.4879C6.33547 35.3109 6.21353 35.0865 6.16133 34.8418C6.10912 34.597 6.12889 34.3424 6.21825 34.1086V34.1086Z" stroke="#F8D57E" stroke-width="2" stroke-linecap="round" stroke-linejoin="round"/>
<path d="M27.5625 11.8125C27.5625 11.8125 27.5625 7.875 31.5 7.875C35.4375 7.875 35.4375 3.9375 35.4375 3.9375" stroke="#F8D57E" stroke-width="2" stroke-linecap="round" stroke-linejoin="round"/>
<path d="M16.7992 32.5499L9.44922 25.2" stroke="#F8D57E" stroke-width="2" stroke-linecap="round" stroke-linejoin="round"/>
<path d="M23.625 2.625V6.5625" stroke="#F8D57E" stroke-width="2" stroke-linecap="round" stroke-linejoin="round"/>
<path d="M35.4375 18.375L38.0625 21" stroke="#F8D57E" stroke-width="2" stroke-linecap="round" stroke-linejoin="round"/>
<path d="M35.4375 13.125L39.375 11.8125" stroke="#F8D57E" stroke-width="2" stroke-linecap="round" stroke-linejoin="round"/>
<path d="M12.5996 16.5375L25.4621 29.4" stroke="#F8D57E" stroke-width="2" stroke-linecap="round" stroke-linejoin="round"/>
</svg>
